<?xml version="1.0" encoding="UTF-8" standalone="no"?>
<svg
   xmlns:dc="http://purl.org/dc/elements/1.1/"
   xmlns:cc="http://creativecommons.org/ns#"
   xmlns:rdf="http://www.w3.org/1999/02/22-rdf-syntax-ns#"
   xmlns:svg="http://www.w3.org/2000/svg"
   xmlns="http://www.w3.org/2000/svg"
   id="svg4504"
   version="1.1"
   viewBox="0 0 161.10123 266.94159"
   height="90mm"
   width="50mm">
  <defs
     id="defs4498" />
  <metadata
     id="metadata4501">
    <rdf:RDF>
      <cc:Work
         rdf:about="">
        <dc:format>image/svg+xml</dc:format>
        <dc:type
           rdf:resource="http://purl.org/dc/dcmitype/StillImage" />
        <dc:title></dc:title>
      </cc:Work>
    </rdf:RDF>
  </metadata>
  <g
     transform="translate(125.11015,-13.755135)"
     id="layer1">
    <path
       id="path5060"
       d="m -33.035124,280.34385 c 0,-0.19403 -0.30813,-0.35278 -0.68473,-0.35278 -0.91656,0 -1.19496,-0.53556 -0.73001,-1.40432 0.20997,-0.39234 0.85284,-2.97531 1.4286,-5.73993 1.30546,-6.26847 3.34477,-14.45411 5.20727,-20.90158 3.74451,-12.96249 5.5597,-21.26469 7.82882,-35.80695 0.8023,-5.14173 1.83914,-11.72986 2.3041,-14.64027 0.46496,-2.91042 0.94376,-6.1648 1.06402,-7.23195 0.28429,-2.52284 1.04347,-7.15809 2.10894,-12.87639 0.9796,-5.25737 1.86833,-10.91876 2.07675,-13.22916 0.13832,-1.53344 0.65032,-5.12675 1.78444,-12.52361 0.8505797,-5.54757 1.1307197,-7.16106 2.3298097,-13.41881 1.25663,-6.55806 1.55539,-7.12203 4.17762,-7.88587 0.85544,-0.24918 2.12544,-0.818 2.82222,-1.26403 2.10474001,-1.34733 5.58294,-4.70316 5.80926,-5.60488 0.11682,-0.46545 0.51217,-0.92466 0.87856,-1.02048 1.2919,-0.33784 4.9374703,-6.45856 7.1955203,-12.08093 2.51747,-6.26828 2.88452,-8.15238 2.8865,-14.816668 0.002,-7.280109 -0.4882,-8.964898 -3.47363,-11.934496 -3.0423803,-3.026241 -8.0143903,-4.213811 -10.6182203,-2.536169 -2.49334,1.606447 -3.43923,3.344608 -4.91824,9.037683 -0.81821,3.149483 -3.83989,8.07882 -4.95232,8.07882 -0.22213,0 -1.04695,0.3107 -1.8329397,0.69045 -1.1862,0.57311 -1.65449,0.62821 -2.75539,0.32424 -1.50009,-0.41419 -3.00361,-1.84128 -3.00361,-2.85092 0,-0.714457 0.17089,-0.666313 1.77505,0.50008 0.8748,0.63606 2.81106,1.18812 2.81106,0.80147 0,-0.10764 -0.25638,-0.58699 -0.56974,-1.06523 -0.68226,-1.041261 -0.32454,-1.105586 1.06264,-0.1911 1.2901397,0.85052 1.9392397,0.5051 3.4457197,-1.833666 0.82957,-1.287879 1.03557,-1.93148 0.87505,-2.734028 -0.24431,-1.221578 0.2693,-1.39319 0.86096,-0.287669 0.32309,0.603691 0.46456,0.65865 0.68107,0.264583 0.35069,-0.638281 1.05263,-5.190659 1.05263,-6.826761 0,-0.690439 0.15875,-1.255342 0.35278,-1.255342 0.19403,0 0.35278,0.238125 0.35278,0.529167 0,0.805123 0.54548,0.631937 0.97435,-0.309355 0.21014,-0.461186 0.87176,-1.396262 1.47029001,-2.077945 0.87001,-0.990883 0.9816,-1.28034 0.55651,-1.443465 -0.29278,-0.112349 -0.53688,-0.644959 -0.54323,-1.185248 -0.006,-0.539666 -0.33135001,-1.854334 -0.72227001,-2.921487 -1.20905,-3.300532 -1.20314,-3.109842 -0.0898,-2.900899 1.13342001,0.212715 5.58263,2.795373 7.70276,4.471272 0.77611,0.613491 2.12548,1.387362 2.99861,1.719713 3.5703403,1.359031 6.5130103,4.500005 7.5790703,8.08984 0.27938,0.940749 1.10976,2.394141 1.84529,3.229751 2.17692,2.473103 4.33397,7.358219 4.33397,9.815199 0,0.87445 0.16137,1.3279 0.47254,1.3279 0.75293,0 1.29135,-1.6249 1.29135,-3.89715 v -2.10007 h -1.23472 c -1.44128,0 -1.61353,-0.548088 -0.35278,-1.122523 1.16476,-0.530704 1.11738,-1.051531 -0.3802,-4.179097 -1.81333,-3.78697 -6.89377,-8.746824 -12.7436503,-12.441159 -2.36742,-1.495083 -4.37959,-2.718333 -4.47148,-2.718333 -0.29281,0 -7.74622,-4.288751 -9.27934,-5.339404 -0.81107,-0.555826 -1.57183,-1.010595 -1.69057,-1.010595 -0.11874,0 0.17421,0.674687 0.65099,1.499305 1.25988,2.179013 3.10931,8.720434 2.97682,10.529012 -0.15854,2.164264 -0.95678,2.227425 -1.00589,0.0796 -0.0214,-0.935535 -0.05,-2.132669 -0.0636,-2.660301 -0.0135,-0.527632 -0.14232,-0.886605 -0.28614,-0.797719 -0.14382,0.08889 -0.34411,-0.154319 -0.44509,-0.540462 -0.10098,-0.38614 -0.0499,-0.619418 0.11361,-0.518393 0.48566,0.300157 -0.23514,-1.791529 -1.30594,-3.789676 -0.54854,-1.023599 -1.18389,-1.861087 -1.41187,-1.861087 -0.228,0 -0.84414,-0.635 -1.36921,-1.411111 -0.52507,-0.776111 -1.34633,-1.878411 -1.82503,-2.449558 -0.4786997,-0.571147 -1.0039197,-1.364897 -1.1671497,-1.763889 -0.16324,-0.398991 -1.43394,-2.074816 -2.82378,-3.724052 -3.09201,-3.669076 -4.25597,-5.915833 -5.23159,-10.098348 -0.80755,-3.462041 -1.43884,-5.419224 -2.48066,-7.690804 -0.36253,-0.79048 -0.83665,-1.88275 -1.05358,-2.42727 -0.4629,-1.16193 -0.9256,-1.01335 -1.20571,0.38716 -0.10992,0.54962 -0.50911,1.38121 -0.88707,1.84798 -0.5898,0.72837 -0.76796,0.78166 -1.25682,0.37595 -0.61864,-0.51342 -0.79098,-2.503 -0.21682,-2.503 0.19403,0 0.35278,0.25135 0.35278,0.55856 0,0.30721 0.19843,0.49322 0.44097,0.41334 1.92201,-0.63297 -2.45774,-9.46306 -7.22642,-14.56932 -3.8965,-4.17233 -11.10693,-8.66121 -15.61594,-9.72176 -4.38768,-1.032 -5.46806,-1.41023 -5.46806,-1.91429 0,-0.72082 1.8825,-0.66755 5.93077,0.1678 5.08433,1.04915 9.9524,3.59167 14.38054,7.51075 3.24689,2.87363 5.17024,5.39255 6.93945,9.08825 0.78953,1.64924 1.49521,2.82377 1.56818,2.61008 0.23049,-0.67496 -1.81902,-6.26159 -3.20888,-8.7469 -1.58772,-2.83911 -5.18812,-6.75868 -8.13866,-8.86014 -1.16906,-0.83264 -3.78707,-2.3298 -5.8178,-3.32701 -2.03073,-0.99722 -3.80783,-2.00017 -3.94912,-2.22878 -0.3748,-0.60643 -5.89803,-0.40455 -8.53257,0.31187 -2.26155,0.61499 -3.32441,1.19088 -2.19788,1.19088 0.4847,0 0.55005,0.1119 0.26554,0.45472 -0.28872,0.34789 0.16507,0.85621 1.9315,2.16363 2.94863,2.1824 4.43466,4.47655 5.23768,8.08598 0.72906,3.27697 0.52939,5.52858 -0.72549,8.18118 -0.47357,1.00104 -0.86104,2.00878 -0.86104,2.23942 0,1.24645 -3.29277,4.80674 -5.74489,6.21163 -1.9069,1.09251 -4.43808,1.29467 -6.07739,0.4854 -1.36617,-0.67444 -1.15673,-1.15245 0.61012,-1.39247 1.96076,-0.26635 3.07682,-0.84911 4.12045,-2.15151 2.35754,-2.94212 2.36583,-8.19472 0.02,-12.66742 -0.24543,-0.46796 -0.55507,-1.08896 -0.68808,-1.38 -0.42866,-0.93792 -3.4312,-2.97399 -5.71618,-3.87621 -1.68236,-0.66428 -3.04623,-0.90774 -5.61113,-1.0016 -3.16206,-0.11572 -3.57112,-0.048 -6.12057,1.01334 -3.36569,1.40115 -5.79216,3.02422 -8.80982,5.89294 -2.90871,2.76515 -4.08595,2.98253 -1.91045,0.35278 3.44462,-4.1639 6.51364,-6.64822 11.4003,-8.19265 2.52684,-0.86749 3.17197,-0.94922 6.35,-0.8045 3.84217,0.17497 5.81531,0.80948 9.22326,2.96594 2.09274,1.32422 4.59306,4.01162 5.31647,5.71425 0.75804,1.78412 1.05983,7.1085 0.43082,7.60083 -0.27337,0.21398 -0.71702,1.02404 -0.98589,1.80015 -0.26888,0.77612 -0.80213,1.85682 -1.18502,2.40157 -1.25687,1.78822 -0.31584,1.44879 1.64702,-0.59408 1.05855,-1.10169 2.35241,-2.87742 2.87525,-3.94607 0.88192,-1.80258 0.93801,-2.18418 0.77605,-5.28041 -0.14789,-2.82747 -0.34577,-3.68519 -1.29511,-5.61355 -1.34787,-2.73793 -3.55711,-4.81393 -6.70727,-6.30275 -2.05816,-0.97273 -2.66017,-1.08234 -6.70277,-1.22041 -3.91919,-0.13386 -4.87293,-0.0439 -8.11004,0.7652 -2.01769,0.50429 -3.74124,0.91689 -3.8301,0.91689 -0.0889,0 -0.0702,0.23813 0.0415,0.52917 -0.0088,0.250959 -0.379734,-0.01082 -0.84319,0.17101 -2.41105,-1.29036 4.42837,-3.73573 11.71985,-4.19032 l 3.98882,-0.24869 -2.40418,-0.2908 c -8.28517,-1.00216 -19.14028,2.83264 -24.35396,8.60356 -1.93799,2.14513 -3.83766,5.26321 -3.89444,6.39229 -0.0375,0.74485 -0.95178,1.90077 -3.74848,4.739 -4.706316,4.77619 -3.837006,3.69536 -8.506866,10.57673 -5.30126,7.811769 -5.78089,9.11299 -6.48065,17.582069 -0.66531,8.052181 -0.86101,9.339442 -1.66331,10.94045 -0.59104,1.179438 -0.67636,2.086733 -0.64692,6.879166 0.0187,3.036295 0.0913,6.07616 0.16149,6.755257 0.28175,2.727219 0.68021,5.124869 0.87943,5.291666 0.11586,0.09701 0.15759,1.336389 0.0927,2.754168 -0.0985,2.152145 -0.21256,2.559558 -0.691,2.467418 -0.63122,-0.121562 -1.69923,-4.595716 -1.89906,-7.955613 -0.10181,-1.711784 -0.17712,-1.852183 -0.99414,-1.853403 -0.9748,-0.0015 -3.17704,-1.204532 -3.17704,-1.73561 0,-0.184905 -0.46987,-0.850639 -1.04416,-1.479406 -0.57429,-0.628766 -1.13892,-1.574602 -1.25472,-2.101857 -0.11581,-0.527258 -0.53595,-1.252921 -0.93365,-1.612589 -0.72687,-0.657352 -2.05914,-2.987047 -2.05914,-3.600753 0,-0.76967 1.24581,-0.71453 2.66645,0.118018 2.5938,1.52007 4.54711,1.070868 6.11859,-1.407093 0.55992,-0.882904 1.12415,-2.170945 1.25386,-2.862315 0.39425,-2.101533 1.2921,-9.621851 1.59541,-13.362908 0.33048,-4.076255 0.99066,-6.445779 2.41251,-8.659015 6.02115,-9.37242 10.06029,-14.77819 12.508686,-16.74099 2.77729,-2.22645 4.13651,-3.76203 4.14391,-4.68157 0.0176,-2.19059 3.20016,-7.24309 6.34127,-10.06721 0.98648,-0.88694 3.28505,-2.37325 5.10791,-3.30291 2.870209,-1.79023 1.838283,-1.346001 5.59563,-2.40276 1.20754,-0.3476 3.7821,-0.55305 7.64189,-0.6098 4.90616,-0.0721 6.03851,0.0114 7.20613,0.53145 1.01357,0.45145 1.45306,0.50741 1.63778,0.20853 0.17076,-0.2763 0.37574,-0.17818 0.63336,0.30321 0.63321,1.18315 1.4098,1.21813 2.80508,0.12633 0.71477,-0.55931 2.33146,-1.36583 3.59264,-1.79227 9.970392,-1.871738 11.527929,-2.543318 20.20749,3.63156 0.69615,0.51332 1.64467,0.84472 2.45121,0.85641 5.81434,0.0843 15.67696,6.5084 19.99089,13.02124 3.0562497,4.61409 5.0493397,14.74443 3.3970297,17.26618 -0.51217,0.78167 -0.49319,0.9335 0.27089,2.166382 0.45191,0.729189 1.03579,1.881424 1.29751,2.560521 0.26171,0.679098 0.63252,1.393473 0.824,1.5875 0.22965,0.232689 0.2593,0.1126 0.0871,-0.352777 -0.62692,-1.694568 -0.63824,-4.642896 -0.0228,-5.939816 0.33723,-0.71068 0.80285,-1.29213 1.0347,-1.29213 0.55973,0 1.91179,1.03267 1.37096,1.04711 -0.23108,0.006 -0.53312,-0.17158 -0.67121,-0.395 -0.41649,-0.67389 -1.20344,0.75202 -1.18621,2.149345 0.008,0.690521 0.24883,1.890491 0.53402,2.666602 0.2852,0.776111 0.91509,2.570921 1.39976,3.988466 1.26713,3.706079 4.23542,9.586136 4.84171,9.591248 0.5722,0.0048 0.21939,-4.599435 -0.59517,-7.76697 -0.47286999,-1.838816 -1.98964999,-6.121425 -3.37064,-9.516911 -3.19545,-7.85679 -3.19831,-7.8669 -1.8457,-6.52639 1.40386,1.3913 5.40333,9.346189 6.82858,13.581945 0.99974,2.971179 1.12075,3.751612 1.06666,6.879167 -0.0336,1.940277 -0.0994,3.904431 -0.14633,4.364781 -0.0683,0.670239 0.10085,0.857977 0.84903,0.942259 0.75636,0.0852 0.96664,-0.06372 1.1039,-0.781755 0.34567,-1.808251 -0.95412,-10.464214 -2.3815,-15.85965 -1.44942,-5.478747 -2.59991999,-7.510107 -7.72127,-13.632987 -2.15053,-2.57107 -1.22108,-2.82213 1.55326,-0.41955 5.93408,5.13891 7.70856,8.89516 9.52309,20.158566 1.25857,7.812405 0.6247,12.498549 -1.53433,11.343075 -1.91519,-1.024978 1.5146,2.237673 4.44067,4.22427 1.7117503,1.162163 8.5349003,5.006823 8.8856503,5.006823 0.45734,0 -2.72205,-4.201614 -5.11211,-6.755725 l -2.42634,-2.592885 -0.0167,1.831262 c -0.0178,1.948367 -0.26747,2.373662 -1.0918903,1.859788 -0.42937,-0.267638 -0.49354,-1.629124 -0.39633,-8.408977 0.16403,-11.439782 -0.36368,-13.949256 -4.17252,-19.842287 -0.77634,-1.20114 -1.41153,-2.31803 -1.41153,-2.48198 0,-0.7125 0.65115,-0.15755 2.12504,1.81113 1.79036,2.39136 2.45962,2.76665 1.4288,0.8012 -4.54629,-8.66841 -18.0336297,-20.16871 -28.2482797,-24.08658 -3.17773,-1.21883 -4.28498,-2.19152 -3.03897,-2.66966 0.5787,-0.22207 9.063,3.10457 10.46618,4.10371 0.53459,0.38067 1.07778,0.69212 1.20708,0.69212 4.8644583,2.388891 7.2912748,4.957778 10.3617897,7.69394 4.27574,3.79032 6.84724,6.54494 8.78987,9.41582 0.91904,1.35819 1.76315,2.54882 1.87579,2.64583 0.87443,0.75314 3.8521403,11.816855 3.8521403,14.312708 0,1.082954 0.16749,1.648707 0.52917,1.787497 0.29104,0.111686 0.52917,0.419322 0.52917,0.683644 0,0.264323 0.83343,1.017069 1.85208,1.672774 3.09564,1.992668 7.43459,6.549072 8.71685,9.153718 2.20352,4.475988 3.31912,11.912938 2.33875,15.590862 -0.70406,2.6413 -0.70898,4.501172 -0.0181,6.827703 0.42348,1.425988 0.45291,1.99361 0.13425,2.589032 -0.22448,0.419442 -0.52906,2.30136 -0.67685,4.182036 -0.32218,4.09993 -0.87028,5.78108 -2.0894,6.40855 -0.49995,0.25733 -1.11877,0.6663 -1.37516,0.90884 -0.5835,0.55195 -0.78253,0.5415 -1.60938,-0.0845 -0.49797,-0.37703 -0.61122,-0.76914 -0.45202,-1.56511 0.23682,-1.1841 -1.02107,-5.4537 -2.32598,-7.895016 l -0.79091,-1.479649 -0.10244,3.121691 c -0.0665,2.025024 0.044,3.298174 0.31449,3.624044 0.33991,0.40958 0.30245,0.45844 -0.20286,0.26453 -0.52328,-0.2008 -0.57746,-0.10593 -0.34802,0.60929 0.87107,2.71528 -0.3568,12.53938 -2.00565,16.04717 -0.89837,1.91119 -2.54242,3.4839 -3.32716,3.18276 -0.49532,-0.19007 -0.56398,-0.5476 -0.39833,-2.07429 0.16342,-1.50607 0.12371,-1.72256 -0.21633,-1.17952 -1.4947603,2.38713 -3.6997303,5.49082 -4.5399803,6.39044 -0.7096,0.75971 -0.98897,1.42334 -0.99014,2.352 -10e-4,1.19974 -0.49353,2.66024 -2.03624,6.04435 -0.53348,1.17026 -0.73263,1.31761 -1.56571,1.15848 -0.65722,-0.12554 -0.90557,-0.0487 -0.79745,0.2467 0.2578,0.70437 -0.41190999,1.43603 -1.07982999,1.17973 -0.62738,-0.24075 -0.62317,-0.56804 0.0482,-3.74932 l 0.2606,-1.23472 -1.20799,0.91296 c -0.66439001,0.50214 -1.96953001,1.20125 -2.90032001,1.55359 -0.93078,0.35234 -1.83169,0.90102 -2.00202,1.21929 -0.17033,0.31827 -0.62518,2.15916 -1.01076,4.09086 -0.38559,1.9317 -1.02284,5.02031 -1.41613,6.86357 -0.39328,1.84327 -1.44857,8.35202 -2.3450897,14.46389 -0.89651,6.11188 -2.1006,13.81125 -2.67574,17.10972 -0.57515,3.29848 -1.35901,8.21973 -1.7419,10.93611 -0.3829,2.71639 -0.85656,5.73264 -1.0526,6.70278 -0.19603,0.97014 -0.74445,4.70077 -1.21871,8.29028 -0.47426,3.58951 -1.1874,8.54783 -1.58475,11.01847 -0.39736,2.47064 -0.72246,4.96159 -0.72246,5.53543 0,0.57384 -0.16134,1.14306 -0.35854,1.26493 -0.19719,0.12187 -0.2829,0.34396 -0.19046,0.49352 0.0924,0.14957 -0.21992,2.32142 -0.69413,4.82632 -1.27461,6.73294 -1.52412,7.95682 -1.8994,9.31688 -0.18739,0.6791 -0.52858,2.02848 -0.75821,2.99861 -0.70516,2.97918 -2.47212,9.32217 -3.75518,13.48025 -0.67125,2.17538 -1.15524,4.23913 -1.07553,4.58611 0.11397,0.49606 0.24352,0.40472 0.60625,-0.42746 1.37282,-3.14951 5.03469,-10.57611 6.34903,-12.8764 0.83148,-1.4552 1.91027,-3.34989 2.39731,-4.21042 5.4384,-9.60876 11.6060797,-16.21583 18.42885971,-19.74175 3.86594999,-1.99788 9.91573999,-3.65287 16.22777029,-4.4393 2.23132,-0.27801 5.64445,-0.74383 7.58473,-1.03516 1.94027,-0.29133 4.7184,-0.63493 6.17361,-0.76355 1.45521,-0.12862 2.70847,-0.29057 2.78503,-0.35988 0.0766,-0.0693 -1.83874,-2.23296 -4.25622,-4.80811 -6.10364,-6.50174 -9.22336,-10.447 -14.23141,-17.99732 -5.6226503,-8.47692 -13.37388029,-16.74279 -19.6854003,-20.99242 -2.08922,-1.4067 -4.03036,-2.55764 -4.31363,-2.55764 -0.2832697,0 -0.5150397,-0.17642 -0.5150397,-0.39204 0,-0.72103 2.4879897,0.0429 4.8979897,1.50389 3.64926,2.21229 5.89772001,4.0497 10.0898,8.24526 4.41283,4.41649 7.2263803,7.90757 11.6631303,14.47171 3.77074,5.57881 6.06522,8.68818 8.96906,12.15451 3.43828,4.1043 9.88835,10.74113 9.88835,10.17468 0,-0.27971 -0.1905,-0.69907 -0.42333,-0.9319 -0.23283,-0.23283 -0.26893,-0.42333 -0.0802,-0.42333 0.18871,0 0.63166,0.5358 0.98433,1.19068 0.59765,1.10977 0.60249,1.26559 0.0712,2.29305 -0.44462,0.85979 -0.80097,1.10238 -1.61934,1.10238 -0.5771,0 -1.04927,-0.15377 -1.04927,-0.34171 0,-0.18793 0.24014,-0.24955 0.53365,-0.13692 0.69487,0.26664 1.58301,-0.48325 1.58301,-1.33659 0,-0.6477 -0.0324,-0.64923 -0.95293,-0.045 -0.69297,0.45485 -2.01627,0.68922 -4.85069,0.85909 -4.95302,0.29684 -14.74236,1.4937 -18.18527,2.22336 -3.8225603,0.81011 -9.1248703,2.55064 -10.75972029,3.53195 -0.77611,0.46586 -2.12548001,1.20667 -2.99861001,1.64624 -0.87312,0.43957 -3.26361,2.47336 -5.31218,4.51953 -3.7717397,3.76732 -6.9847997,8.19935 -10.7021797,14.76237 -2.28545,4.03495 -6.56342,12.65211 -6.56342,13.22076 0,0.2568 -0.19843,0.6653 -0.44097,0.90777 -0.24253,0.24247 -0.45922,0.79015 -0.48153,1.21708 -0.0223,0.42693 -0.75757,2.68123 -1.63392,5.00956 -2.07983,5.52585 -4.69285,14.79686 -4.48003,15.89518 0.1324,0.68327 -0.0303,1.21455 -0.37188,1.21455 -0.19403,0 -0.35278,-0.15875 -0.35278,-0.35278 z m 3.85576,-17.04235 c 0.0137,-0.351 -0.0993,-0.56151 -0.2509,-0.46779 -0.15163,0.0937 -0.30211,0.69839 -0.33441,1.34374 -0.0474,0.94827 7.1e-4,1.038 0.25091,0.46779 0.17028,-0.38806 0.32077,-0.99274 0.3344,-1.34374 z M 3.6633957,131.62556 c 0.39251,-0.91569 0.63607,-1.74249 0.54124,-1.83732 -0.31859,-0.31859 -2.61854,1.85435 -2.46578,2.3296 0.0831,0.25841 0.15102,0.96842 0.15102,1.5778 0,1.08617 0.0104,1.09309 0.52993,0.35141 0.29146,-0.41612 0.85107,-1.50579 1.24359,-2.42149 z M 14.237096,118.58037 c 0,-0.1052 0.22333,-1.33551 0.4963,-2.73403 0.88986,-4.55928 0.91814,-4.83582 0.49442,-4.83582 -0.22151,0 -0.30978,0.093 -0.19615,0.20661 0.11364,0.11363 -0.27017,1.32703 -0.85291,2.69644 -0.79082,1.85841 -1.00318,2.79014 -0.83738,3.67395 0.12218,0.65126 0.3737,1.18411 0.55893,1.18411 0.18524,0 0.33679,-0.0861 0.33679,-0.19126 z m 8.3504,-29.53475 c -1.23314,-2.086123 -4.07034,-4.876532 -6.86545,-6.752241 -1.30179,-0.873587 -2.79447,-1.953041 -3.31708,-2.398793 -0.5226,-0.445749 -1.87682,-1.477709 -3.0093603,-2.293243 -1.13255,-0.815534 -2.68934,-2.209464 -3.45954,-3.097621 -0.78335,-0.903334 -1.86642,-1.736464 -2.45815,-1.890889 -0.60154,-0.156983 -1.11122,-0.553477 -1.18166,-0.919244 -0.0681,-0.353758 -0.84823,-1.532523 -1.73356999,-2.61948 -0.88534,-1.086954 -2.17370001,-3.163891 -2.86303001,-4.615413 l -1.25331,-2.639134 -0.27173,1.223952 c -0.14945,0.673174 -0.44615,2.410319 -0.65934,3.860324 -0.21319,1.450004 -0.52952,2.901508 -0.70295,3.225559 -0.38621,0.721636 1.4959,2.071762 7.25394,5.203589 11.5082003,6.259371 15.5713803,9.201291 19.7423403,14.294333 1.61076,1.966852 2.07877,1.617327 0.77889,-0.581699 z M -115.9379,88.256354 c 0,-0.56937 -0.3231,-0.653782 -1.20587,-0.315034 -0.85883,0.329564 -0.66136,0.8442 0.32393,0.8442 0.54876,0 0.88194,-0.199908 0.88194,-0.529166 z M 23.802816,84.631463 c -0.69609,-2.796801 -3.55179,-10.321187 -5.01601,-13.216487 -0.98675,-1.951185 -5.7127,-9.077751 -6.02362,-9.083424 -0.13157,-0.0025 -0.34115,0.908449 -0.46574,2.024108 -0.1246,1.11566 -0.38706,2.4497 -0.58324,2.964536 -0.33631,0.882548 -0.12816,1.165476 3.64074,4.948908 4.69613,4.714236 7.32885,8.869006 7.63117,12.042919 0.15684,1.646626 0.99791,3.663611 1.37179,3.289723 0.0811,-0.0811 -0.16869,-1.417729 -0.55509,-2.970283 z m -141.162036,2.05117 c 0.62399,-0.394628 0.48574,-0.548393 -0.76192,-0.84739 -1.05282,-0.25231 -1.73378,0.370428 -0.94876,0.86765 0.62249,0.394279 1.06345,0.389058 1.71068,-0.02025 z m 1.10431,-3.01239 c 0.34002,-0.582084 0.62983,-1.667757 0.64401,-2.412609 l 0.0258,-1.354278 -1.0854,0.913306 c -1.1888,1.000305 -2.66079,1.169398 -4.52441,0.519737 -0.62094,-0.216461 -1.19569,-0.326859 -1.27722,-0.245332 -0.36185,0.361848 1.5495,2.46416 2.83008,3.11283 1.80313,0.913366 2.61675,0.785177 3.38715,-0.533654 z M 25.749306,82.170937 c -0.33425,-3.957598 -1.69305,-8.917167 -3.06187,-11.175706 -0.64712,-1.067739 -2.27747,-3.018289 -3.62299,-4.334556 -2.6464,-2.588835 -2.64821,-2.573115 -0.13992,1.216561 2.328,3.517275 5.68582,11.728358 6.43987,15.747791 0.41329,2.203058 0.62593,1.399755 0.38491,-1.45409 z M 0.68780571,83.405659 c -0.12431,-0.436562 -0.32028,-1.224594 -0.43548,-1.751181 -0.20273,-0.926748 -0.17424,-0.947336 0.88901999,-0.642395 0.60416,0.173271 1.56018,0.643802 2.12449,1.045627 0.56431,0.401824 1.31901,0.72554 1.67711,0.71937 0.61088,-0.01051 0.60751,-0.0457 -0.0545,-0.569355 -0.38805,-0.306977 -1.5766,-0.965779 -2.6412,-1.464014 -1.06461,-0.498231 -2.20187999,-1.234207 -2.52727999,-1.635506 -0.83742001,-1.032778 -1.13996001,-0.5005 -0.53647,0.943864 0.2805,0.671326 0.62126,1.87911 0.75724,2.683965 0.13597,0.804856 0.41054,1.463375 0.61015,1.463375 0.20814,0 0.26652,-0.338511 0.13688,-0.79375 z m 2.08167999,-0.23592 c 0.64307,-0.251036 0.60685,-0.324361 -0.42345,-0.857147 -1.48201999,-0.766382 -1.57191999,-0.741864 -1.09752,0.299317 0.4345,0.95364 0.47192,0.967363 1.52097,0.55783 z M 19.930656,82.423784 c -0.45806,-0.3816 -1.09306,-0.692771 -1.41111,-0.691494 -0.37639,0.0014 -0.20879,0.247025 0.48005,0.703231 1.3612,0.901484 2.01733,0.893212 0.93106,-0.01175 z M 1.7342557,79.425691 c -0.37663,-0.284871 -0.85287999,-0.5129 -1.05832999,-0.50673 -0.20545,0.0062 -0.0654,0.244299 0.31124,0.529167 0.37662999,0.284871 0.85287999,0.5129 1.05832999,0.50673 0.20545,-0.0062 0.0654,-0.244299 -0.31124,-0.529167 z m -9.31184,-7.807871 c -0.19382,-0.356168 -0.92106,-1.194657 -1.61608,-1.863309 -1.7944797,-1.726388 -1.6013097,-0.566106 0.21362,1.283176 1.50064,1.529034 2.04033,1.752283 1.40246,0.580133 z m 1.94318,-2.441744 c 0.83339,-2.171803 -3.19232,-10.697182 -8.2631897,-17.49921 -1.9802,-2.65622 -3.98455,-5.19622 -4.45411,-5.64444 -1.41809,-1.35364 -3.41072,-4.79471 -3.85185,-6.65176 -0.61345,-2.5825 -1.06043,-2.12195 -0.78585,0.80972 0.23679,2.52812 1.06925,4.27319 3.29974,6.91713 0.32409,0.38417 0.90677,1.13413 1.29482,1.66657 0.38806,0.53245 1.56489,2.01377 2.6152,3.291841 3.80108,4.625361 7.3799697,10.9364 8.0218397,14.145764 0.18707,0.935366 0.10142,1.126 -0.58678,1.305969 -0.78708,0.205825 -0.77794,0.23386 0.39279,1.204803 1.36544,1.132431 2.00859,1.258323 2.31739,0.453613 z m -3.08589,-2.174583 c -0.0147,-0.14552 -0.23489,-0.820208 -0.48916,-1.499305 -0.34147,-0.911931 -0.52267,-1.08923 -0.69312,-0.678198 -0.2772797,0.668648 0.33825,2.442087 0.84761,2.442087 0.19883,0 0.34943,-0.119063 0.33467,-0.264584 z m -2.0898297,-1.346108 c 0,-0.497826 0.16284,-1.209407 0.36187,-1.581291 0.44628,-0.833889 -0.50525,-2.811194 -3.24303,-6.73912 -4.33667,-6.221838 -6.28459,-8.282068 -5.03618,-5.326535 0.30734,0.727604 0.93103,2.704517 1.38597,4.393141 0.45494,1.688624 1.1978,3.679172 1.65079,4.423442 1.01697,1.670854 4.25559,5.677792 4.616,5.711069 0.14552,0.01344 0.26458,-0.38288 0.26458,-0.880706 z m 5.4361097,-4.83574 c -1.33139,-4.00903 -3.33759,-7.659705 -5.9035597,-10.742679 -6.56539,-7.88825 -9.05755,-11.90327 -9.05755,-14.59228 0,-1.11238 0.68293,-1.37519 1.38264,-0.53208 0.31268,0.37675 0.31185,0.52781 -0.004,0.6329 -0.53853,0.17952 0.26803,1.75438 2.64147,5.15767 3.10536,4.4528 3.62464,5.12505 5.63616,7.29651 1.6123097,1.74051 2.0246297,2.02263 2.3201697,1.5875 0.54287,-0.79926 0.44464,-2.40821 -0.32439,-5.31342 -2.3367297,-8.82761 -6.3441697,-14.73748 -12.9886897,-19.15475 -2.21594,-1.47315 -8.16659,-4.23766 -8.47413,-3.93684 -0.0598,0.0585 1.00737,1.23823 2.37159,2.62153 3.28133,3.32721 4.8407,6.49725 5.49283,11.16632 0.60194,4.30978 1.58668,6.31188 5.05023,10.26774 6.10793,6.976139 8.3844897,10.251134 10.6914197,15.380356 1.61586,3.5927 2.33798,3.6928 1.16525,0.161523 z M -24.186184,32.117036 c -1.1119,-2.37607 -3.27628,-5.40473 -4.35385,-6.09244 -0.34976,-0.22322 -0.0986,0.33693 0.57596,1.28464 1.51554,2.12917 2.77704,4.66897 3.5506,7.14851 0.92791,2.97428 1.04644,3.12264 1.17774,1.47421 0.0907,-1.139 -0.14957,-2.10347 -0.95045,-3.81492 z m -40.00611,165.093714 c -0.12668,-0.12669 -4.00283,-0.24575 -8.61366,-0.26459 l -8.38333,-0.0343 -1.9225,-1.05833 c -1.05737,-0.58208 -2.48612,-1.63421 -3.175,-2.33806 -2.04009,-2.08443 -3.78975,-4.17932 -3.62674,-4.34233 0.0836,-0.0836 -0.31,-0.75785 -0.87468,-1.49831 -3.31418,-4.34591 -4.27623,-5.66954 -4.68968,-6.45226 -0.25351,-0.47994 -1.20091,-1.67057 -2.10534,-2.64583 -4.731316,-5.1019 -6.181566,-8.04805 -7.732286,-15.70793 -0.21604,-1.06715 -0.69768,-3.28965 -1.0703,-4.93889 -0.37263,-1.64924 -0.93362,-4.74486 -1.24666,-6.87917 -0.83001,-5.65913 -2.49528,-13.56933 -3.75049,-17.81527 -1.93783,-6.55499 -2.13242,-7.53228 -2.11768,-10.63565 0.0104,-2.1809 0.2685,-3.9275 0.90528,-6.12488 0.48994,-1.69067 0.8908,-3.6912 0.8908,-4.4456 0,-0.98406 0.14952,-1.37165 0.52916,-1.37165 0.32449,0 0.52917,-0.32997 0.52917,-0.85309 0,-0.4692 0.0964,-1.1042 0.21414,-1.41111 0.39169,-1.02074 0.68821,-0.57639 0.55406,0.8303 -0.22943,2.40574 0.4758,3.79308 2.52581,4.96883 2.59102,1.48604 4.00411,1.40342 7.09242,-0.41464 1.641906,-0.96658 3.851286,-2.83935 6.486926,-5.49863 2.19834,-2.21805 4.0729,-3.95688 4.16571,-3.86408 0.47407,0.47407 -3.12967,7.38496 -6.15873,11.81057 -2.82028,4.12058 -5.302356,6.34245 -6.550276,5.86357 -0.83651,-0.321 -0.69248,-0.84839 0.2317,-0.84839 1.34011,0 3.973616,-2.66945 6.726906,-6.81873 2.7605,-4.16015 4.30682,-6.9396 3.86077,-6.9396 -0.14723,0 -0.90452,0.67673 -1.68287,1.50385 -3.02098,3.21026 -7.270966,6.18995 -9.958426,6.98191 -1.27221,0.37491 -1.71637,0.35108 -3.06643,-0.16452 -2.06061,-0.78695 -3.35396,-1.82946 -3.94026,-3.17604 -0.42469,-0.9754 -0.47526,-1.00289 -0.48764,-0.26509 -0.008,0.45274 -0.35322,2.11962 -0.76805,3.70417 -0.90555,3.45898 -0.98707,7.70785 -0.20079,10.46572 0.30425,1.06715 1.12436,3.92465 1.82245,6.35 0.6981,2.42535 1.33446,4.88597 1.41413,5.46805 0.0797,0.58209 0.38507,2.09021 0.67866,3.35139 0.29358,1.26118 0.707,3.70137 0.9187,5.42263 0.37712,3.06632 3.02499,15.79075 4.08374,19.62459 1.11099,4.02299 2.09834,5.81774 7.083106,12.87523 0.68476,0.96951 1.91697,2.55701 2.73824,3.52778 0.82126,0.97078 2.81325,3.5113 4.42663,5.6456 5.05405,6.68587 5.40584,6.84433 15.36021,6.91921 15.39472,0.11579 14.58204,0.15524 17.63888,-0.8563 3.37569,-1.11704 8.60274,-4.27183 14.55246,-8.78311 4.25699,-3.22779 5.37275,-3.94594 4.87209,-3.13584 -0.52651,0.85191 -9.25158,7.92603 -12.04357,9.7647 -4.35242,2.8663 -7.11023,3.9206 -11.40932,4.36177 -4.26905,0.43809 -4.4269,0.44284 -4.72744,0.1423 z m -15.76227,-33.56584 c -1.49707,-0.82863 -1.72881,-2.07463 -0.35278,-1.8968 3.33666,0.43122 4.99616,0.41073 8.26625,-0.10205 4.31495,-0.67663 7.36836,-0.31231 8.97535,1.07088 1.00766,0.86733 0.86606,1.48595 -0.20849,0.91086 -1.2148,-0.65014 -4.80548,-0.74181 -7.69525,-0.19646 -4.93806,0.93189 -7.57408,0.99455 -8.98508,0.21357 z m 26.69835,0.1445 c -0.10353,-0.26981 -1.03333,-0.92144 -2.06621,-1.44809 -1.03289,-0.52664 -2.90914,-1.57589 -4.16946,-2.33167 -1.26031,-0.75577 -2.64937,-1.37413 -3.0868,-1.37413 -0.43743,0 -0.79532,-0.12473 -0.79532,-0.27718 0,-0.34766 -0.34483,-0.39036 -5.16835,-0.64 -2.94764,-0.15255 -4.14139,-0.0852 -4.7625,0.26861 -0.57433,0.32717 -2.29144,0.47784 -5.59138,0.49062 -4.72728,0.0183 -4.77032,0.0258 -5.82083,1.01299 -1.81719,1.70766 -2.62296,2.13273 -3.10492,1.63796 -0.33129,-0.34011 0.11187,-0.92421 2.04659,-2.69747 l 2.46944,-2.26337 3.52778,0.0461 c 2.3203,0.0303 4.29268,-0.15706 5.76255,-0.54738 1.91264,-0.50792 2.80252,-0.54084 6.17361,-0.22839 3.64693,0.33802 4.20604,0.49474 7.54435,2.11475 3.69083,1.79108 7.28439,4.22719 7.65314,5.18813 0.30412,0.79252 0.25153,1.53909 -0.10841,1.53909 -0.17327,0 -0.39974,-0.22075 -0.50328,-0.49055 z m -34.31846,-20.59366 c -1.21607,-0.81095 -2.26398,-5.95976 -2.27845,-11.19495 -0.0153,-5.54968 0.8348,-14.49086 1.76962,-18.61171 1.01543,-4.47623 3.86404,-10.84524 4.85065,-10.84524 0.28317,0 0.46081,0.11907 0.39474,0.26459 -0.0661,0.14552 -0.61272,1.21708 -1.21478,2.38125 -2.49099,4.81671 -3.80651,11.33362 -4.40285,21.8112 -0.32583,5.72476 -0.29862,7.10761 0.19709,10.01578 0.31632,1.8557 0.79912,3.9101 1.07289,4.56533 0.27378,0.65523 0.51657,1.30354 0.53956,1.44068 0.0618,0.36852 -0.48309,0.47008 -0.92847,0.17307 z m 5.15067,-5.89836 c 0,-1.04265 2.65448,-6.29928 3.78806,-7.50145 1.35492,-1.4369 2.97472,-1.56853 3.80012,-0.30881 0.50399,0.76918 0.48916,0.99737 -0.18129,2.7893 -0.65352,1.7467 -3.22192,4.77044 -4.13582,4.86904 -0.74889,0.0808 -1.7644,0.29069 -2.47732,0.51203 -0.61092,0.18966 -0.79375,0.10671 -0.79375,-0.36011 z m 4.40972,-2.29798 c 0.35118,-0.38806 0.47977,-0.70556 0.28574,-0.70556 -0.19403,0 -0.64011,0.3175 -0.9913,0.70556 -0.35118,0.38805 -0.47977,0.70555 -0.28574,0.70555 0.19403,0 0.64011,-0.3175 0.9913,-0.70555 z m -1.26305,-1.41111 c 0.39605,-0.8316 0.3887,-0.84285 -0.1286,-0.19716 -0.30175,0.37663 -0.54863,0.83965 -0.54863,1.02894 0,0.44821 0.16295,0.24808 0.67723,-0.83178 z m 2.32334,-2.82439 c 0.35226,-0.38924 0.55107,-0.79712 0.4418,-0.90639 -0.29978,-0.29978 -1.67848,0.66109 -1.67848,1.1698 0,0.65093 0.50693,0.54295 1.23668,-0.26341 z m 4.88724,1.96895 c 0.0657,-2.72142 0.53177,-4.24813 1.11787,-3.66203 0.36693,0.36693 -0.34932,6.39641 -0.77663,6.53788 -0.29886,0.099 -0.39377,-0.70088 -0.34124,-2.87585 z m 18.82865,-11.33807 c -3.9924,-0.96737 -7.63073,-4.26308 -10.907,-9.8799 -2.87013,-4.92053 -3.24434,-6.16985 -3.25511,-10.86712 -0.0107,-4.646798 0.53495,-7.103775 2.37592,-10.699187 1.16851,-2.282109 2.42558,-3.47055 4.47251,-4.228328 2.01938,-0.747582 1.97488,-0.699808 1.33246,-1.430489 -0.29959,-0.340737 -0.88392,-1.294211 -1.29853,-2.118829 -0.4146,-0.824618 -0.85043,-1.499305 -0.96849,-1.499305 -0.11807,0 -0.10765,0.806774 0.0232,1.792834 0.21264,1.60292 0.17074,1.779961 -0.39552,1.671292 -0.34834,-0.06685 -1.06621,-0.913314 -1.59525,-1.881033 l -0.9619,-1.759482 -0.008,1.70156 c -0.007,1.426418 -0.10807,1.68312 -0.62561,1.5875 -0.33954,-0.06273 -1.05196,-0.971995 -1.58314,-2.020581 -1.29332,-2.553116 -1.38488,-2.590214 -1.12491,-0.455789 0.20517,1.684542 0.16475,1.833143 -0.49865,1.833143 -0.58213,0 -0.9453,-0.588098 -1.87562,-3.037258 -1.28766,-3.38988 -1.64495,-3.363087 -0.99629,0.07471 0.23752,1.258788 0.33699,2.383567 0.22105,2.499508 -0.42695,0.426952 -1.21069,-0.654643 -1.65045,-2.277692 -0.48506,-1.790259 -1.63714,-4.314825 -1.96906,-4.314825 -0.26486,0 0.16985,3.336554 0.65526,5.029358 0.209,0.728853 0.29791,1.40728 0.19758,1.50761 -0.48161,0.481612 -1.37415,-0.408979 -1.72631,-1.722547 -0.21573,-0.804668 -0.85245,-2.885348 -1.41494,-4.623734 -0.56249,-1.738383 -1.02271,-3.365571 -1.02271,-3.615972 0,-1.028594 0.77214,-0.339648 1.56547,1.396813 0.72835,1.594216 0.85019,1.717011 0.87507,0.881944 0.0159,-0.533576 0.16305,-0.970139 0.32701,-0.970139 0.40976,0 1.26868,1.023888 1.92359,2.293056 0.4619,0.895117 0.58334,0.963122 0.78746,0.440972 0.13273,-0.339549 0.15191,-0.850403 0.0426,-1.135228 -0.10929,-0.28483 -0.0564,-0.60585 0.11762,-0.71338 0.50169,-0.31006 1.63828,1.134748 2.3069,2.932489 0.86599,2.328454 1.2265,2.574985 1.2265,0.838758 0,-0.814917 0.13415,-1.481667 0.2981,-1.481667 0.47732,0 1.28138,1.114647 1.99922,2.771447 0.54786,1.264493 0.71142,1.420731 0.92334,0.881944 0.14164,-0.360129 0.26868,-1.274695 0.28232,-2.032374 0.0242,-1.346009 0.0407,-1.363228 0.71707,-0.751092 0.38075,0.344576 0.88454,1.202616 1.11954,1.906761 l 0.42727,1.280258 0.30756,-1.169313 c 0.39162,-1.488913 1.20063,-1.385948 2.27703,0.28981 0.43535,0.677757 1.02917,1.549781 1.31961,1.937837 0.50021,0.66833 0.5289,0.634206 0.54378,-0.646758 0.0207,-1.784685 0.62582,-1.56627 1.84664,0.66657 0.68858,1.259395 1.008,1.581855 1.16407,1.175145 0.1183,-0.308286 0.16751,-0.782645 0.10935,-1.054128 -0.0581,-0.271484 0.13239,-0.493607 0.42343,-0.493607 0.29104,0 1.00542,0.912361 1.5875,2.027467 1.1498,2.202687 1.5875,2.519083 1.5875,1.147533 0,-1.241619 0.60327,-1.095636 1.45786,0.352777 0.82724,1.40207 1.26437,1.559776 1.42802,0.515194 0.18939,-1.208839 0.77851,-0.946902 1.61828,0.719529 0.51713,1.026202 1.045,1.601544 1.49295,1.627222 0.91796,0.05262 1.56845,0.626537 2.83179,2.49845 1.78079,2.63863 1.22465,3.1548 -0.65171,0.604873 -0.64429,-0.87557 -1.5965,-1.753553 -2.11603,-1.951076 -0.51952,-0.197524 -1.22366,-0.611696 -1.56476,-0.92038 -1.08026,-0.977625 -1.10078,-0.17309 -0.0231,0.904621 1.43531,1.435312 4.59697,6.822694 5.05931,8.620925 0.21095,0.820463 0.78949,2.736103 1.28564,4.256973 0.64921,1.99002 0.79467,2.87267 0.51887,3.14847 -0.2758,0.2758 -0.50936,0.0854 -0.83311,-0.6792 -0.27673,-0.65354 -0.64123,-0.99818 -0.94706,-0.89547 -0.33909,0.11388 -0.42809,-0.013 -0.2799,-0.39924 0.26531,-0.69139 -3.98792,-4.626825 -7.26479,-6.721965 -2.26731,-1.449659 -5.87276,-3.092697 -6.26059,-2.853006 -0.12196,0.07538 -0.0649,0.902698 0.1268,1.838501 0.479,2.338331 0.0784,4.081385 -1.24144,5.4012 -2.8504,2.8504 -5.66959,2.23384 -8.94962,-1.957288 -0.53482,-0.68339 -0.54592,-0.676105 -0.35325,0.23181 0.1094,0.51555 0.30033,1.229928 0.42427,1.587498 0.19999,0.57696 0.16171,0.57072 -0.34005,-0.0554 -0.55756,-0.69575 -0.56556,-0.69373 -0.57663,0.1454 -0.0152,1.14966 1.56138,3.81237 3.15145,5.32266 3.60743,3.42645 9.3643,6.33491 12.56129,6.34618 2.14443,0.008 4.30513,-1.03909 5.97169,-2.89271 0.87758,-0.97609 1.69041,-2.15242 1.80628,-2.61409 0.11587,-0.46166 0.35221,-0.83938 0.5252,-0.83938 0.173,0 0.31454,-0.23813 0.31454,-0.52917 0,-0.29104 0.15875,-0.52917 0.35277,-0.52917 0.66169,0 0.35468,1.59724 -0.57758,3.00492 -2.31327,3.49292 -4.79718,5.08669 -8.13892,5.22224 -1.67025,0.0677 -2.06322,0.26036 -4.32152,2.11819 -1.36631,1.12402 -2.4842,2.18137 -2.4842,2.34966 0,0.61353 3.76133,2.4246 5.90007,2.84087 1.69073,0.32907 2.57305,0.33243 3.83528,0.0146 1.97079,-0.49625 2.3691,-0.28568 0.89829,0.4749 -1.29183,0.66804 -3.39418,0.66918 -6.14217,0.003 z m -2.63631,-5.6926 c 2.49796,-2.28162 2.70079,-2.575 1.78027,-2.575 -0.92179,0 -5.24477,-2.15178 -7.28109,-3.62419 -1.11657,-0.80736 -1.96919,-1.17574 -2.46944,-1.06692 -0.55594,0.12093 -0.63468,0.0744 -0.28907,-0.17083 0.37459,-0.26579 0.15089,-0.75612 -1.05833,-2.31976 -0.84333,-1.09051 -1.58558,-1.82773 -1.64944,-1.63828 -0.15125,0.44867 3.90492,8.11374 4.29381,8.11413 0.16342,1.6e-4 0.70359,-0.31943 1.20038,-0.7102 0.49679,-0.39078 0.98262,-0.63113 1.07964,-0.53411 0.097,0.097 -0.24472,0.50763 -0.75941,0.91249 -1.10042,0.86559 -1.14516,1.28774 -0.25016,2.36058 0.80227,0.96169 1.09133,0.98137 2.1772,0.14825 1.05928,-0.81274 2.07605,-1.19392 2.07605,-0.77831 0,0.17486 -0.27782,0.41063 -0.61737,0.52393 -0.33954,0.11329 -1.01219,0.51025 -1.49475,0.88213 l -0.8774,0.67615 0.85069,0.90552 c 0.46789,0.49804 0.90379,0.90553 0.96866,0.90553 0.0649,0 1.10877,-0.905 2.31976,-2.01111 z m -1.99679,-15.15689 1.293,-1.292991 -0.19925,-2.634459 c -0.10958,-1.448954 -0.33109,-2.766307 -0.49223,-2.927449 -0.16114,-0.161145 -1.24335,-0.396857 -2.40491,-0.523801 -1.81959,-0.198864 -2.02953,-0.164024 -1.51675,0.251693 0.99933,0.810154 1.15996,2.820084 0.31158,3.898621 -1.24242,1.579485 -3.36971,0.290657 -3.30471,-2.002179 0.0308,-1.086231 -0.0282,-1.16041 -0.62579,-0.787199 -0.36288,0.226621 -0.83857,0.843678 -1.05709,1.371236 -0.33297,0.803871 -0.27326,1.176782 0.36872,2.302835 1.12155,1.967213 3.41366,3.624043 5.02328,3.631013 1.04344,0.004 1.57517,-0.25833 2.60415,-1.28732 z m 15.16236,-0.553805 c -0.35034,-2.190863 -1.95022,-5.561531 -2.63978,-5.561531 -0.31652,0 -1.19341,0.419887 -1.94864,0.933083 l -1.37316,0.93308 1.20307,0.997708 c 1.37657,1.141589 1.64793,1.191426 2.59341,0.4763 0.79403,-0.600573 1.25549,-0.663752 1.25549,-0.171891 0,0.19033 -0.39687,0.445664 -0.88194,0.567411 -0.48507,0.121744 -0.88195,0.385756 -0.88195,0.586694 0,0.316601 2.41437,2.678301 2.77912,2.718481 0.0733,0.008 0.0258,-0.65762 -0.10562,-1.479335 z m -4.63997,-5.092407 c 1.90404,-1.282336 1.91765,-1.304127 1.41782,-2.270682 -0.27756,-0.536758 -0.62803,-1.052167 -0.7788,-1.145349 -0.27103,-0.167506 -4.41185,2.751098 -4.58089,3.228784 -0.0662,0.187029 1.28731,1.200901 1.93539,1.449758 0.0462,0.01774 0.94911,-0.55039 2.00648,-1.262511 z m -15.36138,-2.400233 c 0.99549,-0.218648 7.80285,-5.345757 7.80285,-5.876889 0,-0.16824 -0.22514,-0.30589 -0.50031,-0.30589 -0.27518,0 -0.71183,-0.08116 -0.97033,-0.180365 -0.25852,-0.0992 -1.48977,0.644758 -2.73614,1.653237 -1.24636,1.008478 -2.14523,1.638003 -1.99748,1.398947 0.14774,-0.239056 1.04987,-1.052184 2.00472,-1.806952 1.72583,-1.364192 1.81979,-2.372635 0.11712,-1.257004 -0.48202,0.315831 -1.0289,0.479982 -1.2153,0.364783 -0.59644,-0.368621 -2.64918,0.860524 -3.31253,1.983479 -0.62461,1.057395 -0.62409,1.076945 0.0194,0.732532 0.36366,-0.194624 0.97514,-0.700768 1.35886,-1.124768 0.38371,-0.424 1.01694,-0.92662 1.40716,-1.116934 0.39023,-0.190313 -0.0842,0.373917 -1.05439,1.253843 -0.97013,0.87993 -1.96796,1.605972 -2.21739,1.613426 -0.48416,0.01446 -1.7539,2.67952 -2.10078,4.409306 l -0.20943,1.044366 1.3263,-1.288087 c 0.72946,-0.708448 1.75439,-1.382109 2.27762,-1.49703 z m -1.01659,-1.0015 c 0,-0.06071 0.51593,-0.576651 1.14653,-1.146528 l 1.14652,-1.03614 -1.03614,1.146528 c -0.96583,1.068726 -1.25691,1.308682 -1.25691,1.03614 z m 14.26543,1.080526 c 2.50332,-2.048168 2.50542,-2.147245 0.0823,-3.874339 -0.85029,-0.606058 -1.13756,-0.649118 -1.94028,-0.290834 -0.85865,0.383251 -3.516,2.061267 -3.94083,2.488487 -0.097,0.09756 -0.50587,0.415506 -0.90858,0.706547 -0.4027,0.291042 -0.0277,-0.130143 0.83345,-0.935968 0.86111,-0.805822 2.10341,-1.754735 2.76067,-2.108694 0.65726,-0.35396 1.19502,-0.734321 1.19502,-0.845249 0,-0.110924 -0.5505,-0.400748 -1.22334,-0.644048 -1.21144,-0.438066 -1.256,-0.417912 -4.58611,2.074132 -1.84952,1.384074 -3.36277,2.627358 -3.36277,2.76286 0,0.135498 1.07156,0.43477 2.38125,0.665049 1.30968,0.230276 2.77812,0.513691 3.26319,0.629804 0.68416,0.163774 1.35504,-0.143369 2.99156,-1.369607 1.1603,-0.869399 2.23664,-1.50223 2.39187,-1.406288 0.15524,0.09594 -0.75161,0.853478 -2.01521,1.68342 -2.17241,1.426841 -2.2546,1.529665 -1.50993,1.889019 1.1694,0.56431 1.1457,0.573719 3.5877,-1.424291 z m -12.50154,0.79375 c 0,-0.194028 -0.15875,-0.352778 -0.35278,-0.352778 -0.19403,0 -0.35278,0.15875 -0.35278,0.352778 0,0.194028 0.15875,0.352778 0.35278,0.352778 0.19403,0 0.35278,-0.15875 0.35278,-0.352778 z m 7.80079,-8.56809 c -0.2881,-0.288103 -0.39246,-0.248623 -0.39246,0.14846 0,0.297511 0.11575,0.656681 0.25723,0.798159 0.14148,0.141478 0.31809,0.07467 0.39247,-0.148459 0.0744,-0.223132 -0.0414,-0.582306 -0.25724,-0.79816 z m -2.50913,-0.05414 c 0,-0.279591 -0.15875,-0.60646 -0.35277,-0.726377 -0.19403,-0.119916 -0.35278,0.108839 -0.35278,0.508346 0,0.399507 0.15875,0.726377 0.35278,0.726377 0.19402,0 0.35277,-0.228756 0.35277,-0.508346 z m 7.23391,34.372849 c 0.35226,-0.38924 0.71698,-0.63121 0.8105,-0.53769 0.23704,0.23704 -0.64284,1.24541 -1.08672,1.24541 -0.20035,0 -0.0761,-0.31848 0.27622,-0.70772 z m -2.82419,-1.86866 c 1.3582,-1.25745 2.54882,-2.20874 2.64584,-2.11399 0.22645,0.22117 -3.33712,3.51416 -4.3481,4.01796 -0.42195,0.21027 0.34407,-0.64652 1.70226,-1.90397 z M -107.824,116.83136 c 1.1543,-0.65986 1.77968,-0.65209 0.90271,0.0112 -0.37663,0.28487 -0.93226,0.51232 -1.23472,0.50544 -0.3525,-0.008 -0.2333,-0.19351 0.33201,-0.51666 z m 1.18321,-10.11239 c -0.61041,-0.16264 -1.62439,-0.77638 -2.25328,-1.36385 -1.33811,-1.24998 -1.62775,-1.1517 -1.09656,0.37207 0.28918,0.82955 0.28221,1.06862 -0.0282,0.96516 -0.56869,-0.18956 -0.97064,-1.77604 -1.15346,-4.55271 -0.0849,-1.28947 -0.41342,-3.483468 -0.73004,-4.875557 -0.31663,-1.392086 -0.49518,-2.611568 -0.39679,-2.709962 0.0984,-0.09839 0.37705,0.706547 0.61924,1.788753 0.47776,2.134852 0.83273,2.463303 1.17753,1.089544 0.24365,-0.970799 -1.04462,-3.343187 -1.81961,-3.35086 -0.24253,-0.0024 -0.44097,-0.321867 -0.44097,-0.709923 0,-0.808499 0.35732,-0.899894 1.03443,-0.264583 0.38744,0.363527 0.43284,0.242016 0.2585,-0.691879 -0.20788,-1.113535 0.20927,-1.86903 0.6438,-1.165958 0.54561,0.882808 0.96532,0.293786 0.75003,-1.05258 -0.17627,-1.102307 -0.11349,-1.411111 0.28687,-1.411111 0.28188,0 0.61223,0.16134 0.7341,0.358532 0.3883,0.628276 0.92406,-0.03867 0.81102,-1.009587 -0.0917,-0.787463 0.0173,-0.923074 0.68473,-0.85241 0.68751,0.07279 0.79375,-0.08067 0.79375,-1.146527 0,-1.289227 0.87457,-1.767142 1.28354,-0.701397 0.34137,0.889607 0.83313,0.589556 0.83313,-0.508345 0,-1.253741 0.653,-1.757969 1.23893,-0.956663 0.64285,0.879143 0.87773,0.710325 0.87773,-0.630837 0,-0.667646 0.16876,-1.3182 0.37501,-1.445669 0.45305,-0.28 1.74166,0.814666 1.74166,1.479525 0,0.260967 0.15875,0.47449 0.35278,0.47449 0.194016,0 0.354936,-0.595313 0.357586,-1.322917 0.006,-1.661781 0.33138,-2.910417 0.75829,-2.910417 0.18043,0 0.59847,0.475245 0.929,1.056104 0.33052,0.580856 0.72001,1.057106 0.86553,1.058333 0.14552,0.0011 0.26459,-0.839145 0.26459,-1.867492 0,-2.229513 0.52638,-2.987887 1.47685,-2.12773 0.60887,0.551025 0.63981,0.502451 0.63981,-1.004355 0,-0.870856 0.10618,-1.689558 0.23596,-1.819334 0.30786,-0.307856 1.52793,0.799634 1.52793,1.386942 0,0.249519 0.15137,0.547218 0.33636,0.66155 0.20942,0.12943 0.25621,-0.92777 0.12399,-2.801401 -0.24484,-3.4694 0.0932,-3.823032 1.44346,-1.509977 0.78868,1.351054 1.54276,4.079409 2.14507,7.76111 0.30094,1.839497 -0.39957,1.697687 -0.87131,-0.176388 -1.1903,-4.728637 -1.55553,-5.955055 -1.82257,-6.120095 -0.39976,-0.247064 -0.37398,1.393941 0.0619,3.938637 0.75936,4.43357 0.7569,4.386319 0.22927,4.386319 -0.31243,0 -0.85056,-1.034119 -1.42271,-2.734028 l -0.9202,-2.734028 0.21515,2.822222 c 0.11834,1.552222 0.36735,3.113631 0.55337,3.469799 0.39986,0.76563 0.1656,1.106484 -0.5672,0.825285 -0.28924,-0.110995 -0.70039,-0.884668 -0.91366,-1.719277 -1.17428,-4.595354 -1.93977,-4.634801 -1.66838,-0.08598 0.25267,4.235051 -0.29293,4.354399 -1.83182,0.400699 -0.21194,-0.544516 -0.54342,-0.892334 -0.73662,-0.772929 -0.41098,0.254 -0.46624,3.681744 -0.0694,4.306132 0.14908,0.23458 1.45375,1.018184 2.89926,1.741346 3.60999,1.806 5.68427,3.948928 6.62855,6.847893 0.99023,3.040052 1.50288,6.197961 1.28253,7.900351 -0.26523,2.04915 -0.38236,1.89328 -0.60903,-0.8105 -0.51673,-6.163545 -3.685,-12.174183 -5.81598,-11.033716 -0.76553,0.409702 -3.96164,3.842498 -3.96164,4.255018 0,0.163901 0.38282,0.394088 0.85072,0.511521 1.36253,0.341972 6.0283,3.621871 7.04103,4.949637 1.51843,1.99075 1.05492,2.19292 -0.78199,0.34108 -3.18604,-3.211928 -8.53766,-5.791143 -10.824926,-5.217074 -1.06616,0.267588 -1.06655,0.314339 -0.0176,2.148829 1.2115,2.118695 1.38057,3.270835 0.71407,4.866015 -1.3349,3.19486 -3.1732,4.578 -5.32313,4.00515 z m 2.72826,-1.73659 c 1.71389,-1.71389 2.16825,-4.44657 1.11561,-6.709639 -0.78625,-1.690356 -1.7352,-1.941209 -3.59271,-0.949723 -1.24818,0.666242 -1.36317,0.819707 -0.82499,1.101072 1.52366,0.796576 2.02405,2.84705 0.95553,3.91556 -0.49849,0.49849 -0.65347,0.49915 -1.60564,0.007 -0.57965,-0.29974 -1.14175,-0.7739 -1.24911,-1.05369 -0.27908,-0.72725 -0.82683,-0.2667 -0.82683,0.69524 0,1.07177 1.10035,2.43155 2.54301,3.14257 1.57243,0.77498 2.60595,0.73105 3.48513,-0.14813 z m -3.20592,-4.02602 c 0,-0.29104 -0.15875,-0.52917 -0.35278,-0.52917 -0.19402,0 -0.35277,0.23813 -0.35277,0.52917 0,0.29104 0.15875,0.52916 0.35277,0.52916 0.19403,0 0.35278,-0.23812 0.35278,-0.52916 z m -0.94244,-3.414049 c 1.72155,-1.483345 4.28005,-2.504214 6.81789,-2.720399 2.530286,-0.215548 2.530466,-0.215639 4.853856,-2.449735 1.27791,-1.228803 2.32347,-2.264262 2.32347,-2.301028 0,-0.03676 -0.57367,-0.37579 -1.27483,-0.753389 -1.26464,-0.681052 -1.27966,-0.680988 -1.8786,0.008 -0.33208,0.381981 -1.62371,1.646481 -2.870306,2.809998 -1.94407,1.814509 -1.87,1.705413 0.520626,-0.766812 l 2.78716,-2.8823 -1.33094,-0.556101 c -1.79685,-0.750775 -2.481356,-0.701365 -3.435356,0.247978 -0.44442,0.442242 -1.2049,1.11445 -1.68997,1.493788 -0.74534,0.582877 -0.72145,0.512971 0.15419,-0.451301 0.56988,-0.627557 0.88738,-1.140422 0.70556,-1.139695 -0.48346,0.0018 -2.48399,1.270138 -3.31597,2.102115 -0.39533,0.395333 -0.87753,0.718788 -1.07156,0.718788 -0.19403,0 -0.35278,0.396875 -0.35278,0.881944 0,1.149273 0.24174,1.113402 1.7471,-0.259235 0.68833,-0.627648 0.0344,0.126414 -1.45323,1.675694 -2.68908,2.800562 -3.46392,4.258536 -3.46558,6.521041 -6e-4,0.838148 0.0357,0.822328 0.73129,-0.318661 0.40256,-0.660333 1.07666,-1.497633 1.49798,-1.860663 z m 5.27495,-6.037886 c 1.93377,-1.900089 3.592336,-3.378313 3.685706,-3.284943 0.0934,0.09337 -0.44222,0.693762 -1.190196,1.334202 -0.74798,0.640439 -2.40655,2.118663 -3.6857,3.284943 -1.27916,1.166279 -0.74357,0.565891 1.19019,-1.334202 z m -6.80195,2.99297 c 0,-0.156944 -0.25109,-0.593506 -0.55797,-0.970139 -0.51058,-0.626632 -0.54054,-0.629906 -0.35278,-0.03857 0.11286,0.355417 0.20519,0.791979 0.20519,0.970139 0,0.178156 0.15875,0.323924 0.35278,0.323924 0.19403,0 0.35278,-0.128407 0.35278,-0.285351 z m 2.37017,-1.695397 c -0.34323,-0.343232 -1.31184,0.557861 -1.31184,1.220396 0,0.45357 0.15198,0.412383 0.77415,-0.209787 0.42578,-0.425781 0.66775,-0.880558 0.53769,-1.010609 z m -1.31724,-0.929668 c -0.003,-0.242535 -0.15929,-0.679098 -0.34738,-0.970139 -0.26648,-0.412352 -0.34316,-0.31501 -0.34737,0.440972 -0.003,0.533576 0.15334,0.970139 0.34737,0.970139 0.19403,0 0.35035,-0.198438 0.34738,-0.440972 z m 1.76389,-1.940278 c -0.003,-0.145521 -0.15929,-0.502708 -0.34738,-0.79375 -0.27653,-0.427905 -0.34301,-0.377275 -0.34737,0.264583 -0.003,0.436563 0.15334,0.79375 0.34737,0.79375 0.19403,0 0.35035,-0.119062 0.34738,-0.264583 z m 2.12207,-1.497965 c 0,-0.151776 -0.31222,-0.650727 -0.69382,-1.108788 -0.72971,-0.875911 -0.90811,-0.521895 -0.50133,0.994841 0.19043,0.710025 1.19515,0.805815 1.19515,0.113947 z m 1.76388,-1.207209 c 0,-0.710198 -0.38245,-1.616354 -0.6822,-1.616354 -0.13966,0 -0.18403,0.47625 -0.0986,1.058334 0.15517,1.057239 0.7808,1.504364 0.7808,0.55802 z m 2.885496,-0.386112 c 0.23215,-0.232149 -1.211486,-3.309411 -1.562576,-3.330793 -0.31582,-0.01923 -0.34102,1.602976 -0.0422,2.717912 0.19134,0.713977 1.14103,1.076664 1.604806,0.612881 z m 82.56029,10.881409 c -1.28892,-0.63525 -2.63227,-2.14474 -2.43355,-2.734511 0.0707,-0.209719 0.53206,-0.332768 1.02531,-0.273441 0.56329,0.06775 1.27343,-0.216666 1.9095,-0.764773 0.98308,-0.847136 1.0122,-0.968841 0.99647,-4.16481 -0.0175,-3.555231 -0.61115,-5.912555 -2.22338,-8.828934 -0.50358,-0.910914 -0.80196,-1.76984 -0.66308,-1.908718 0.44156,-0.441565 1.57009,0.899192 2.92147,3.470868 1.13787,2.165371 1.33335,2.893853 1.48326,5.527399 0.15055,2.644842 0.0693,3.253102 -0.63432,4.749363 -0.44384,0.943821 -1.25727,1.989878 -1.80763,2.324565 l -1.00064,0.608531 0.89867,0.409459 c 1.40117,0.638422 2.55659,0.496489 3.12838,-0.384288 1.11589,-1.718934 1.77087,-4.344038 1.78241,-7.14375 0.0103,-2.489736 -0.10943,-3.030025 -1.01589,-4.586111 -0.56513,-0.970138 -3.28501,-4.016988 -6.04417,-6.770778 -4.94683,-4.937199 -6.51256,-7.090579 -6.50829,-8.951016 0.004,-1.832773 0.81836,-3.657523 2.37389,-5.320514 1.77539,-1.898036 2.52301,-2.074075 0.96596,-0.227449 -1.91097,2.266371 -2.11977,3.71512 -0.95566,6.631043 0.194,0.48593 2.44719,2.946555 5.0071,5.468055 6.74322,6.642047 7.94179,8.526935 7.85041,12.345659 -0.0353,1.474407 -1.31045,6.02646 -2.34707,8.378472 -0.4154,0.942513 0.18603,0.727982 1.74367,-0.621968 2.4792097,-2.148643 2.7242497,-2.435444 3.4425197,-4.02922 0.59601,-1.322511 0.66919,-1.993953 0.4733,-4.342824 -0.54638,-6.55162 -2.10118,-9.819076 -7.1929397,-15.116203 -3.43862,-3.577311 -4.45459,-4.905756 -3.75181,-4.905756 0.43304,0 4.07109,3.09324 6.93634,5.897612 3.2087197,3.14054 4.5118297,5.546298 5.3923697,9.955201 0.74469,3.728713 0.5068,5.717589 -1.05477,8.818453 -1.21694,2.41651 -1.73611,3.05259 -2.65872,3.257377 -0.29037,0.06445 -0.6142997,0.434689 -0.7198397,0.822745 -0.20769,0.763672 -4.24645,2.969235 -5.45256,2.977631 -0.38805,0.0028 -1.22807,-0.252613 -1.86671,-0.567369 z m -75.26974,-2.269335 c 0.64911,-0.590207 1.2779,-0.975405 1.39732,-0.85599 0.24744,0.247445 -1.68747,1.923186 -2.22475,1.926756 -0.19403,0.0014 0.17831,-0.480554 0.82743,-1.070766 z m -1.88577,-2.081205 c 0.75785,-0.776111 1.49816,-1.411111 1.64513,-1.411111 0.14697,0 -0.35522,0.635 -1.11596,1.411111 -0.76075,0.776111 -1.50105,1.411111 -1.64513,1.411111 -0.14407,0 0.35811,-0.635 1.11596,-1.411111 z m 88.9724897,-15.70847 c -0.52072,-1.061731 -0.87179,-1.930418 -0.78015,-1.930418 0.23745,0 2.01685,3.570901 1.85837,3.729387 -0.0723,0.0723 -0.5575,-0.737239 -1.07822,-1.798969 z"
       style="fill:#000000;stroke-width:0.35277778" />
  </g>
</svg>
